<svg width="151" height="151" viewBox="0 0 151 151" fill="none" xmlns="http://www.w3.org/2000/svg">
<path d="M85.2141 15.1144L87.3289 5.15461L93.3392 6.43355L93.1121 7.50345L88.3077 6.48113L87.5931 9.84644L92.0863 10.8025L91.8591 11.8724L87.3659 10.9163L86.6472 14.3011L91.5294 15.34L91.3022 16.4099L85.2141 15.1144Z" fill="#5C3C12"/>
<path d="M100.429 11.4891L100.902 15.078L103.8 12.9127L105.046 13.4389L101.291 15.9979L102.08 20.4758L100.834 19.9497L100.3 16.5074L97.4636 18.526L96.2179 17.9999L99.9357 15.4254L99.1836 10.9629L100.429 11.4891Z" fill="#5C3C12"/>
<path d="M105.085 25.3826L110.914 16.6492L111.857 17.2795L111.183 18.2884L111.299 18.3658C111.444 18.3035 111.637 18.2292 111.878 18.1431C112.123 18.056 112.411 18.0251 112.741 18.0503C113.075 18.0746 113.449 18.225 113.862 18.5014C114.397 18.8589 114.779 19.3077 115.008 19.8479C115.237 20.388 115.302 20.9799 115.203 21.6235C115.105 22.2672 114.832 22.9225 114.387 23.5897C113.938 24.2623 113.435 24.7689 112.877 25.1094C112.321 25.4471 111.75 25.6157 111.164 25.6149C110.581 25.6115 110.025 25.4328 109.496 25.079C109.088 24.8063 108.807 24.5204 108.652 24.2213C108.499 23.9194 108.414 23.6375 108.398 23.3753C108.383 23.1105 108.379 22.8962 108.384 22.7325L108.302 22.6772L106.061 26.0349L105.085 25.3826ZM109.753 20.4663C109.433 20.9459 109.221 21.4161 109.117 21.8767C109.014 22.3346 109.029 22.7572 109.161 23.1445C109.295 23.5291 109.558 23.8522 109.949 24.1139C110.357 24.3866 110.769 24.5067 111.185 24.4741C111.606 24.4406 112.007 24.2866 112.39 24.0121C112.777 23.7367 113.121 23.3729 113.423 22.9208C113.721 22.4742 113.921 22.0257 114.022 21.5752C114.128 21.1237 114.114 20.7011 113.978 20.3073C113.847 19.9126 113.575 19.5771 113.161 19.3007C112.765 19.0353 112.364 18.913 111.96 18.9336C111.557 18.9515 111.168 19.0936 110.791 19.3598C110.416 19.6233 110.07 19.9921 109.753 20.4663Z" fill="#5C3C12"/>
<path d="M125.557 25.0224L118.409 32.2729L117.574 31.4482L124.723 24.1978L125.557 25.0224Z" fill="#5C3C12"/>
<path d="M125.445 41.0222C125.055 40.4538 124.848 39.8622 124.823 39.2472C124.801 38.635 124.95 38.0414 125.271 37.4666C125.594 36.8944 126.08 36.3848 126.73 35.9377C127.386 35.4868 128.039 35.2121 128.691 35.1135C129.345 35.0177 129.954 35.0899 130.516 35.3302C131.081 35.5732 131.559 35.9789 131.949 36.5472C132.339 37.1156 132.545 37.7059 132.568 38.3181C132.592 38.9331 132.441 39.5276 132.116 40.1016C131.792 40.6783 131.303 41.1921 130.647 41.643C129.997 42.0901 129.347 42.3606 128.696 42.4546C128.047 42.5513 127.439 42.4781 126.875 42.2351C126.312 41.9948 125.835 41.5905 125.445 41.0222ZM126.313 40.4248C126.61 40.8565 126.964 41.1356 127.377 41.2622C127.789 41.3887 128.222 41.3949 128.674 41.2808C129.126 41.1667 129.563 40.965 129.983 40.6757C130.404 40.3864 130.75 40.0499 131.021 39.6661C131.292 39.2824 131.444 38.8741 131.476 38.4414C131.509 38.0086 131.377 37.5764 131.081 37.1446C130.784 36.7129 130.429 36.4347 130.013 36.3101C129.598 36.1854 129.163 36.1811 128.708 36.297C128.253 36.413 127.815 36.6157 127.394 36.905C126.974 37.1943 126.629 37.5299 126.361 37.9117C126.092 38.2936 125.943 38.7 125.913 39.1309C125.884 39.5617 126.017 39.993 126.313 40.4248Z" fill="#5C3C12"/>
<path d="M130.456 49.4404L137.451 46.3774L137.905 47.4161L136.849 47.8787L136.88 47.9516C137.282 47.9276 137.664 48.0355 138.025 48.2751C138.387 48.5148 138.659 48.8443 138.842 49.2634C138.877 49.3423 138.919 49.4417 138.967 49.5615C139.016 49.6813 139.051 49.7729 139.071 49.8363L137.978 50.3149C137.971 50.2744 137.948 50.1849 137.91 50.0463C137.875 49.9095 137.827 49.7697 137.764 49.6269C137.616 49.2868 137.412 49.0143 137.152 48.8095C136.897 48.6064 136.611 48.482 136.295 48.4361C135.982 48.3919 135.668 48.439 135.353 48.5772L130.926 50.5155L130.456 49.4404Z" fill="#5C3C12"/>
<path d="M134.605 62.1695C134.443 61.4518 134.461 60.7969 134.66 60.2046C134.864 59.6149 135.219 59.1146 135.728 58.7037C136.241 58.2953 136.878 58.0048 137.641 57.832C138.404 57.6592 139.108 57.6459 139.752 57.7921C140.401 57.9408 140.945 58.2287 141.385 58.6559C141.829 59.0855 142.127 59.6365 142.279 60.309C142.366 60.6969 142.388 61.0947 142.344 61.5022C142.301 61.9097 142.168 62.3016 141.948 62.6779C141.73 63.0534 141.404 63.3871 140.971 63.679C140.537 63.9709 139.973 64.1956 139.278 64.353L138.793 64.4628L137.496 58.7213L138.485 58.4973L139.519 63.075C139.94 62.9798 140.296 62.8108 140.587 62.568C140.88 62.3284 141.087 62.0335 141.208 61.6832C141.33 61.3361 141.344 60.9556 141.251 60.5418C141.148 60.086 140.945 59.7172 140.644 59.4355C140.346 59.1563 139.998 58.9684 139.599 58.8719C139.2 58.7753 138.795 58.7736 138.385 58.8666L137.725 59.0159C137.163 59.1433 136.708 59.3483 136.361 59.6309C136.017 59.916 135.783 60.2561 135.659 60.6514C135.537 61.046 135.529 61.4744 135.633 61.9367C135.701 62.2373 135.804 62.4994 135.943 62.7228C136.086 62.9487 136.263 63.1312 136.475 63.2702C136.689 63.4084 136.937 63.4968 137.218 63.5352L137.157 64.7111C136.756 64.6797 136.382 64.5588 136.035 64.3484C135.692 64.1373 135.396 63.8477 135.146 63.4794C134.899 63.1105 134.719 62.6738 134.605 62.1695Z" fill="#5C3C12"/>
<path d="M136.125 71.7511L143.757 71.501L143.794 72.6339L142.641 72.6717L142.644 72.7512C143.026 72.8779 143.341 73.1196 143.588 73.4763C143.835 73.833 143.966 74.2399 143.981 74.6971C143.984 74.7832 143.985 74.8909 143.986 75.0202C143.987 75.1495 143.986 75.2474 143.981 75.3139L142.789 75.3529C142.797 75.3129 142.809 75.2213 142.824 75.0782C142.843 74.9383 142.85 74.7905 142.845 74.6348C142.833 74.2638 142.744 73.9351 142.579 73.6487C142.417 73.3655 142.197 73.1439 141.92 72.9838C141.646 72.827 141.337 72.7542 140.993 72.7655L136.163 72.9238L136.125 71.7511Z" fill="#5C3C12"/>
<path d="M134.844 97.5383L133.568 93.0795L137.216 95.9752L141.058 93.3579L139.491 97.6973L143.156 100.546L138.518 100.391L136.951 104.73L135.67 100.259L131.015 100.15L134.844 97.5383Z" fill="#5C3C12"/>
<path d="M122.696 113.783L130.303 120.55L126.224 125.145L125.407 124.418L128.668 120.745L126.097 118.458L123.048 121.894L122.23 121.167L125.28 117.731L122.695 115.432L119.381 119.165L118.564 118.438L122.696 113.783Z" fill="#5C3C12"/>
<path d="M118.328 128.818L114.978 127.455L115.426 131.047L114.354 131.871L113.987 127.338L109.708 125.81L110.781 124.987L114.034 126.224L113.683 122.757L114.755 121.934L115.154 126.442L119.401 127.994L118.328 128.818Z" fill="#5C3C12"/>
<path d="M103.963 126.007L108.664 135.395L107.651 135.904L107.108 134.819L106.984 134.881C106.966 135.039 106.935 135.243 106.891 135.495C106.845 135.752 106.73 136.017 106.545 136.292C106.358 136.571 106.043 136.822 105.599 137.045C105.024 137.333 104.445 137.444 103.863 137.376C103.281 137.309 102.734 137.073 102.224 136.669C101.714 136.265 101.28 135.704 100.921 134.987C100.558 134.264 100.367 133.576 100.348 132.922C100.329 132.271 100.465 131.691 100.755 131.182C101.047 130.676 101.477 130.28 102.046 129.995C102.484 129.775 102.872 129.671 103.208 129.684C103.546 129.7 103.832 129.766 104.068 129.881C104.305 129.999 104.494 130.101 104.633 130.187L104.722 130.142L102.914 126.533L103.963 126.007ZM105.924 132.498C105.666 131.983 105.362 131.566 105.014 131.247C104.667 130.932 104.293 130.736 103.891 130.66C103.491 130.586 103.08 130.655 102.66 130.866C102.221 131.086 101.913 131.385 101.736 131.763C101.557 132.146 101.492 132.572 101.541 133.04C101.589 133.513 101.735 133.993 101.978 134.479C102.219 134.959 102.509 135.354 102.85 135.665C103.19 135.981 103.564 136.177 103.973 136.253C104.381 136.334 104.807 136.263 105.251 136.04C105.678 135.826 105.982 135.538 106.164 135.176C106.347 134.817 106.417 134.408 106.372 133.948C106.328 133.491 106.179 133.008 105.924 132.498Z" fill="#5C3C12"/>
<path d="M94.1545 144L91.3935 134.2L92.5226 133.881L95.2837 143.681L94.1545 144Z" fill="#5C3C12"/>
<path d="M80.3157 136C81.0025 135.942 81.6192 136.054 82.1655 136.336C82.7085 136.619 83.1504 137.042 83.4911 137.605C83.8285 138.169 84.0306 138.843 84.0976 139.629C84.1651 140.422 84.0804 141.126 83.8435 141.742C83.6033 142.357 83.2395 142.851 82.7522 143.222C82.2616 143.593 81.6728 143.808 80.9859 143.867C80.299 143.925 79.684 143.813 79.141 143.53C78.5947 143.248 78.1527 142.823 77.815 142.256C77.474 141.69 77.2698 141.011 77.2023 140.218C77.1353 139.432 77.2221 138.733 77.4626 138.12C77.6998 137.508 78.0637 137.016 78.5543 136.645C79.0417 136.274 79.6288 136.059 80.3157 136ZM80.4051 137.05C79.8834 137.095 79.4654 137.265 79.1514 137.562C78.8373 137.858 78.618 138.231 78.4933 138.681C78.3686 139.13 78.328 139.61 78.3713 140.118C78.4146 140.627 78.5359 141.094 78.7352 141.519C78.9344 141.944 79.214 142.278 79.5739 142.52C79.9338 142.762 80.3747 142.861 80.8964 142.816C81.4182 142.772 81.836 142.6 82.1497 142.3C82.4635 142.001 82.6826 141.624 82.807 141.171C82.9314 140.718 82.9719 140.238 82.9286 139.729C82.8852 139.22 82.7641 138.755 82.5651 138.333C82.3662 137.911 82.0869 137.58 81.7272 137.342C81.3676 137.103 80.9269 137.006 80.4051 137.05Z" fill="#5C3C12"/>
<path d="M70.5267 136.203L69.7293 143.798L68.602 143.679L68.7225 142.532L68.6434 142.524C68.4655 142.885 68.1829 143.164 67.7958 143.36C67.4086 143.556 66.9876 143.63 66.5327 143.582C66.447 143.573 66.3401 143.56 66.2119 143.543C66.0837 143.526 65.987 143.511 65.9217 143.497L66.0463 142.311C66.0848 142.325 66.1739 142.349 66.3136 142.384C66.4496 142.421 66.5951 142.448 66.75 142.465C67.1192 142.504 67.4569 142.461 67.7633 142.336C68.0659 142.215 68.3155 142.028 68.512 141.775C68.7049 141.526 68.8193 141.229 68.8553 140.887L69.3599 136.081L70.5267 136.203Z" fill="#5C3C12"/>
<path d="M57.4184 133.519C58.1224 133.732 58.6827 134.072 59.0991 134.538C59.5113 135.006 59.7703 135.563 59.8761 136.208C59.9778 136.856 59.9152 137.554 59.6883 138.302C59.4615 139.051 59.1252 139.669 58.6795 140.157C58.2296 140.648 57.7103 140.978 57.1217 141.149C56.5289 141.323 55.9027 141.309 55.243 141.109C54.8625 140.993 54.5059 140.816 54.1733 140.576C53.8407 140.337 53.5654 140.028 53.3474 139.65C53.1285 139.275 52.9993 138.827 52.9599 138.306C52.9204 137.785 53.004 137.183 53.2106 136.501L53.3548 136.025L58.9872 137.736L58.6931 138.707L54.2024 137.343C54.0774 137.755 54.0484 138.148 54.1153 138.522C54.179 138.894 54.3331 139.22 54.5777 139.499C54.8191 139.776 55.1427 139.977 55.5487 140.1C55.9958 140.236 56.4164 140.242 56.8103 140.12C57.2001 139.999 57.5356 139.789 57.8167 139.49C58.0978 139.191 58.2994 138.84 58.4215 138.437L58.6176 137.79C58.7848 137.238 58.8315 136.741 58.7575 136.3C58.6794 135.86 58.4993 135.489 58.2174 135.185C57.9345 134.884 57.5662 134.665 57.1127 134.527C56.8178 134.438 56.5389 134.398 56.2761 134.408C56.0091 134.421 55.7629 134.484 55.5375 134.6C55.3112 134.718 55.112 134.89 54.94 135.114L53.9476 134.481C54.1733 134.147 54.4632 133.882 54.8174 133.685C55.1706 133.491 55.5689 133.376 56.0124 133.341C56.455 133.309 56.9237 133.368 57.4184 133.519Z" fill="#5C3C12"/>
<path d="M48.3491 130.103L44.7965 136.863L43.7936 136.334L44.3302 135.313L44.2598 135.276C43.9608 135.546 43.5953 135.7 43.1633 135.738C42.7312 135.777 42.3129 135.689 41.9082 135.476C41.8319 135.436 41.7374 135.384 41.6246 135.321C41.5117 135.258 41.4275 135.208 41.372 135.171L41.9271 134.115C41.9576 134.142 42.0313 134.198 42.1482 134.282C42.2606 134.368 42.3857 134.447 42.5235 134.519C42.8519 134.692 43.1814 134.778 43.512 134.776C43.838 134.775 44.139 134.694 44.415 134.532C44.6866 134.372 44.9025 134.139 45.0629 133.834L47.311 129.556L48.3491 130.103Z" fill="#5C3C12"/>
<path d="M26.5919 116.233L31.0945 117.329L26.7775 119.071L27.1526 123.708L24.1582 120.198L19.8733 121.978L22.2995 118.02L19.3051 114.51L23.8217 115.606L26.2156 111.61L26.5919 116.233Z" fill="#5C3C12"/>
<path d="M18.5002 97.6301L8.85983 100.906L6.88652 95.0867L7.92211 94.7348L9.49948 99.3865L12.7569 98.2796L11.2817 93.9292L12.3173 93.5773L13.7925 97.9277L17.0687 96.8144L15.4658 92.0873L16.5014 91.7354L18.5002 97.6301Z" fill="#5C3C12"/>
<path d="M7.60121 86.3983L10.4435 84.1578L7.1004 82.7737L6.91532 81.4341L11.0349 83.3531L14.4795 80.3868L14.6646 81.7263L11.9799 83.945L15.1654 85.351L15.3505 86.6905L11.2363 84.8109L7.7863 87.7379L7.60121 86.3983Z" fill="#5C3C12"/>
<path d="M17.1544 75.2892L6.66885 74.739L6.72811 73.6071L7.93952 73.6706L7.94679 73.5316C7.8189 73.4386 7.65634 73.3106 7.4591 73.1476C7.25873 72.9811 7.08498 72.7496 6.93788 72.4531C6.78763 72.1532 6.72551 71.755 6.7515 71.2585C6.78512 70.6164 6.97528 70.0588 7.32198 69.5858C7.66868 69.1128 8.14379 68.7544 8.74733 68.5105C9.35086 68.2667 10.0531 68.1658 10.8541 68.2079C11.6617 68.2502 12.3545 68.4243 12.9326 68.7301C13.5074 69.0358 13.9442 69.4404 14.2431 69.9439C14.5387 70.4473 14.6699 71.0168 14.6366 71.6523C14.6109 72.1421 14.5093 72.5301 14.3317 72.8161C14.1508 73.102 13.9519 73.319 13.7351 73.4669C13.5149 73.6147 13.3331 73.7279 13.1896 73.8067L13.1844 73.906L17.2158 74.1175L17.1544 75.2892ZM10.5421 73.7873C11.118 73.8175 11.6305 73.7597 12.0795 73.614C12.5253 73.4681 12.8807 73.2395 13.146 72.9282C13.4079 72.6167 13.5511 72.2259 13.5757 71.7559C13.6014 71.266 13.4937 70.8505 13.2527 70.5093C13.0085 70.1646 12.6707 69.8979 12.2391 69.7093C11.8045 69.5173 11.3157 69.407 10.7729 69.3785C10.2367 69.3504 9.74914 69.4078 9.31019 69.5507C8.86811 69.6901 8.51264 69.9187 8.24376 70.2365C7.97175 70.5508 7.82274 70.9562 7.79675 71.4527C7.7718 71.9293 7.87164 72.3362 8.09628 72.6732C8.31761 73.0101 8.63908 73.2725 9.06069 73.4606C9.479 73.6485 9.9728 73.7574 10.5421 73.7873Z" fill="#5C3C12"/>
<path d="M6.36695 57.8593L16.2511 60.3034L15.97 61.4426L6.08587 58.9985L6.36695 57.8593Z" fill="#5C3C12"/>
<path d="M20.1615 49.7771C19.8731 50.4033 19.4711 50.8839 18.9556 51.2191C18.4414 51.5512 17.8554 51.7261 17.1977 51.7439C16.5415 51.7586 15.8552 51.6006 15.139 51.2701C14.4167 50.9368 13.8466 50.5149 13.4285 50.0043C13.0118 49.4908 12.7627 48.9305 12.681 48.3234C12.6007 47.7132 12.7048 47.095 12.9932 46.4689C13.2815 45.8427 13.6828 45.3635 14.197 45.0314C14.7126 44.6962 15.3 44.522 15.9593 44.5087C16.62 44.4923 17.3115 44.6508 18.0337 44.9842C18.75 45.3147 19.3149 45.736 19.7286 46.2482C20.1436 46.7573 20.3913 47.3169 20.4716 47.9271C20.5532 48.5342 20.4499 49.1509 20.1615 49.7771ZM19.2045 49.3354C19.4236 48.8598 19.4819 48.4121 19.3796 47.9926C19.2772 47.573 19.0614 47.1978 18.7321 46.867C18.4028 46.5361 18.0064 46.2638 17.543 46.0499C17.0795 45.836 16.6137 45.7105 16.1455 45.6733C15.6773 45.6361 15.2492 45.7141 14.861 45.9072C14.4728 46.1004 14.1692 46.4349 13.9501 46.9105C13.7311 47.3862 13.6742 47.8345 13.7796 48.2554C13.885 48.6764 14.1038 49.053 14.4361 49.3852C14.7684 49.7174 15.1663 49.9905 15.6297 50.2044C16.0932 50.4183 16.5575 50.5431 17.0227 50.5789C17.4878 50.6147 17.913 50.5353 18.2982 50.3408C18.6834 50.1462 18.9855 49.8111 19.2045 49.3354Z" fill="#5C3C12"/>
<path d="M24.8211 41.1569L18.6162 36.7057L19.2759 35.784L20.2131 36.4563L20.2594 36.3916C20.0335 36.0582 19.931 35.6747 19.952 35.241C19.973 34.8074 20.1166 34.4047 20.3828 34.0327C20.433 33.9627 20.497 33.876 20.5749 33.7729C20.6529 33.6697 20.7138 33.5931 20.7578 33.543L21.7273 34.2385C21.6961 34.2651 21.6309 34.3305 21.5318 34.4348C21.4319 34.5345 21.3366 34.6476 21.246 34.7743C21.0299 35.0761 20.9003 35.3911 20.8571 35.719C20.8131 36.0424 20.8524 36.352 20.9748 36.6478C21.0965 36.9391 21.2974 37.1852 21.5775 37.3861L25.504 40.2028L24.8211 41.1569Z" fill="#5C3C12"/>
<path d="M33.6269 31.0752C33.0935 31.582 32.5216 31.9013 31.9112 32.0331C31.301 32.1602 30.6896 32.1102 30.077 31.883C29.4644 31.6512 28.8891 31.2514 28.351 30.6837C27.8128 30.1161 27.4419 29.5176 27.2381 28.8883C27.0345 28.2543 27.0037 27.6389 27.1459 27.0422C27.2881 26.4407 27.6092 25.9026 28.109 25.4277C28.3974 25.1538 28.7277 24.9314 29.1001 24.7605C29.4724 24.5897 29.8765 24.5029 30.3124 24.5003C30.7461 24.4952 31.199 24.6044 31.6711 24.8279C32.1433 25.0513 32.6245 25.4217 33.1147 25.9388L33.4567 26.2996L29.1891 30.3538L28.4914 29.6178L31.8939 26.3854C31.5975 26.0727 31.2705 25.853 30.913 25.7264C30.5579 25.5974 30.1989 25.5704 29.8361 25.6454C29.4757 25.718 29.1417 25.9005 28.8341 26.1927C28.4953 26.5145 28.2819 26.8772 28.194 27.2807C28.1063 27.6795 28.1229 28.0752 28.2438 28.4678C28.3647 28.8603 28.57 29.2093 28.8596 29.5148L29.3247 30.0055C29.7215 30.4241 30.1299 30.7104 30.55 30.8645C30.9702 31.0139 31.3819 31.0411 31.7851 30.9461C32.186 30.8487 32.5582 30.6367 32.9018 30.3103C33.1253 30.098 33.2975 29.875 33.4184 29.6412C33.5395 29.4028 33.6057 29.1571 33.617 28.904C33.626 28.6486 33.5754 28.3904 33.4651 28.1295L34.5058 27.5797C34.6838 27.9409 34.771 28.3244 34.7674 28.7301C34.7615 29.1334 34.6642 29.5366 34.4756 29.9398C34.2847 30.3406 34.0018 30.7191 33.6269 31.0752Z" fill="#5C3C12"/>
<path d="M41.0743 24.8662L36.9603 18.4327L37.9147 17.8211L38.5361 18.7928L38.6031 18.7499C38.5167 18.3565 38.5636 17.9623 38.7438 17.5673C38.924 17.1724 39.2067 16.8515 39.5918 16.6047C39.6643 16.5582 39.7559 16.5015 39.8665 16.4345C39.9771 16.3676 40.0621 16.319 40.1215 16.2888L40.7643 17.2941C40.7255 17.3072 40.6407 17.3438 40.51 17.4039C40.3803 17.4595 40.2499 17.5293 40.1187 17.6133C39.8062 17.8136 39.5691 18.0581 39.4074 18.3467C39.2468 18.6307 39.1685 18.9328 39.1726 19.253C39.1777 19.5686 39.2731 19.8716 39.4588 20.162L42.0621 24.2331L41.0743 24.8662Z" fill="#5C3C12"/>
<path d="M63.8762 12.7812L60.6969 16.1569L61.3197 11.5414L57.1056 9.57753L61.6362 8.70617L62.2102 4.1001L64.4483 8.16533L68.9789 7.29397L65.7918 10.6813L68.0787 14.7371L63.8762 12.7812Z" fill="#5C3C12"/>
</svg>
